<?xml version="1.0" standalone="no"?>
<!DOCTYPE svg PUBLIC "-//W3C//DTD SVG 20010904//EN"
 "http://www.w3.org/TR/2001/REC-SVG-20010904/DTD/svg10.dtd">
<svg version="1.0" xmlns="http://www.w3.org/2000/svg"
 width="180.000000pt" height="180.000000pt" viewBox="0 0 180.000000 180.000000"
 preserveAspectRatio="xMidYMid meet">

<g transform="translate(0.000000,180.000000) scale(0.100000,-0.100000)"
fill="#000000" stroke="none">
<path d="M727 1755 c-312 -65 -556 -281 -656 -582 -126 -373 19 -783 352
-1001 442 -289 1044 -117 1267 361 56 121 71 185 77 337 6 168 -14 267 -86
415 -108 220 -297 379 -536 450 -112 34 -308 43 -418 20z m268 -8 c56 -7 74
-17 68 -35 -5 -14 -4 -15 8 -6 24 19 48 24 55 11 4 -7 4 -9 -1 -5 -4 4 -14 0
-22 -10 -8 -9 -12 -11 -8 -4 10 20 -13 14 -25 -7 -7 -14 -7 -22 1 -27 18 -11
-14 -24 -42 -18 -50 10 -213 3 -282 -12 -135 -31 -273 -104 -367 -196 -56 -55
-110 -115 -110 -124 0 -14 -42 -64 -50 -59 -5 3 -10 -2 -12 -10 -2 -12 -6 -11
-16 6 -11 18 -11 20 0 16 7 -2 21 0 31 5 18 9 18 11 2 28 -10 11 -14 24 -9 31
4 7 3 10 -3 6 -6 -4 -13 2 -16 13 -3 11 -1 20 4 20 4 0 5 7 2 17 -4 9 -2 14 3
10 6 -3 16 9 22 28 7 18 45 64 86 103 186 177 423 253 681 219z m170 -37 c4
-6 10 -8 15 -5 5 3 20 0 32 -7 13 -6 29 -13 35 -14 28 -5 147 -78 203 -125 33
-28 79 -73 101 -102 22 -29 46 -60 54 -69 29 -35 65 -110 59 -120 -4 -6 -2 -8
3 -5 13 8 26 -20 17 -35 -3 -5 -11 -2 -18 8 -13 17 -56 12 -56 -7 0 -17 20
-49 31 -49 6 0 7 6 3 13 -5 9 -4 9 7 -1 11 -10 17 -8 31 10 15 19 17 19 11 4
-4 -13 -3 -17 5 -12 7 4 12 1 13 -6 0 -7 2 -20 4 -28 15 -68 14 -70 -13 -76
-45 -10 -52 -13 -52 -24 0 -6 5 -8 12 -4 8 5 9 2 5 -10 -4 -10 -1 -24 8 -33
12 -12 13 -18 4 -29 -9 -11 -8 -18 2 -30 10 -13 10 -17 -2 -25 -10 -7 -7 -8
12 -5 23 4 26 1 21 -17 -3 -12 -7 -16 -10 -9 -5 15 -24 -3 -35 -32 -4 -10 -10
-16 -13 -13 -3 3 -1 15 6 26 6 12 7 21 3 21 -4 0 -9 23 -11 51 -1 28 -9 81
-17 117 -7 37 -11 71 -8 77 4 5 3 7 -2 3 -4 -4 -18 16 -30 45 -63 153 -201
300 -355 377 -25 13 -48 27 -51 33 -4 5 -12 6 -19 2 -8 -5 -11 -4 -7 2 4 6 0
14 -9 17 -9 4 -13 2 -8 -5 5 -8 1 -8 -12 0 -44 24 -47 28 -30 34 9 4 15 3 15
-1 -3 -21 3 -23 21 -7 11 10 17 22 14 26 -3 5 -7 18 -9 29 -4 21 9 27 20 10z
m-182 -406 c-4 -11 -8 -12 -13 -4 -5 9 -9 9 -14 1 -12 -18 -407 -15 -432 3
-17 13 10 15 223 15 214 0 241 -2 236 -15z m37 6 c0 -5 -2 -10 -4 -10 -3 0 -8
5 -11 10 -3 6 -1 10 4 10 6 0 11 -4 11 -10z m325 -21 c0 -31 -11 -40 -17 -12
-3 14 -20 16 -149 14 -127 -2 -146 0 -146 14 0 13 20 15 156 14 l156 0 0 -30z
m-593 -75 c5 -41 -1 -94 -11 -94 -3 0 -6 29 -6 65 0 70 10 87 17 29z m168 -29
c0 -37 -4 -65 -10 -65 -6 0 -10 28 -10 65 0 37 4 65 10 65 6 0 10 -28 10 -65z
m60 0 c0 -37 -4 -65 -10 -65 -6 0 -10 28 -10 65 0 37 4 65 10 65 6 0 10 -28
10 -65z m365 9 c0 -29 -3 -47 -7 -41 -5 7 -5 -9 -2 -34 4 -28 2 -54 -5 -65 -9
-15 -11 4 -9 87 2 62 7 106 13 106 6 0 10 -24 10 -53z m-762 5 c20 -9 33 -22
35 -37 l4 -24 -21 21 c-12 12 -28 21 -36 21 -18 0 -34 30 -27 50 5 13 7 13 9
-1 2 -9 18 -22 36 -30z m277 31 c0 -5 -2 -10 -4 -10 -3 0 -8 5 -11 10 -3 6 -1
10 4 10 6 0 11 -4 11 -10z m170 6 c0 -3 -4 -8 -10 -11 -5 -3 -10 -1 -10 4 0 6
5 11 10 11 6 0 10 -2 10 -4z m-830 -40 c0 -3 -4 -8 -10 -11 -5 -3 -10 -1 -10
4 0 6 5 11 10 11 6 0 10 -2 10 -4z m608 -39 c2 -20 -1 -37 -6 -37 -6 0 -12 18
-14 40 -2 25 0 39 7 37 5 -2 11 -20 13 -40z m62 -3 c0 -19 -4 -34 -10 -34 -5
0 -10 18 -10 41 0 24 4 38 10 34 6 -3 10 -22 10 -41z m220 0 c0 -19 -4 -34
-10 -34 -5 0 -10 18 -10 41 0 24 4 38 10 34 6 -3 10 -22 10 -41z m50 0 c0 -48
-16 -43 -18 7 -1 24 2 38 8 34 6 -3 10 -22 10 -41z m-478 1 c3 -27 1 -32 -9
-23 -14 11 -17 40 -6 51 10 11 11 9 15 -28z m48 25 c0 -5 -4 -10 -10 -10 -5 0
-10 5 -10 10 0 6 5 10 10 10 6 0 10 -4 10 -10z m320 -25 c0 -19 -4 -35 -10
-35 -5 0 -10 16 -10 35 0 19 5 35 10 35 6 0 10 -16 10 -35z m157 3 c-3 -7 -5
-2 -5 12 0 14 2 19 5 13 2 -7 2 -19 0 -25z m53 12 c0 -11 -4 -20 -10 -20 -5 0
-10 9 -10 20 0 11 5 20 10 20 6 0 10 -9 10 -20z m10 -60 c0 -4 -14 -7 -32 -8
-17 0 -34 -6 -38 -12 -4 -7 -7 -2 -7 12 0 21 3 23 38 20 22 -2 39 -7 39 -12z
m-390 -80 c0 -27 -4 -50 -10 -50 -5 0 -10 23 -10 50 0 28 5 50 10 50 6 0 10
-22 10 -50z m240 0 c0 -27 -4 -50 -10 -50 -5 0 -10 23 -10 50 0 28 5 50 10 50
6 0 10 -22 10 -50z m640 46 c0 -3 -4 -8 -10 -11 -5 -3 -10 -1 -10 4 0 6 5 11
10 11 6 0 10 -2 10 -4z m-1007 -33 c15 -7 27 -19 27 -27 0 -13 -7 -11 -35 5
-19 12 -35 28 -35 37 0 10 3 13 8 7 4 -6 19 -16 35 -22z m-408 -33 c22 -2 51
2 65 7 20 8 26 7 32 -6 12 -29 8 -40 -14 -43 -23 -3 -25 -16 -13 -74 4 -19 -2
-23 -55 -33 -48 -10 -66 -9 -87 1 -31 15 -56 57 -44 73 5 5 14 34 22 62 13 53
13 53 33 34 12 -11 38 -20 61 -21z m463 0 c-1 -31 -18 -32 -18 -1 0 15 8 31
16 31 1 0 2 -13 2 -30z m112 0 c0 -16 -2 -30 -4 -30 -2 0 -6 14 -8 30 -3 17
-1 30 4 30 4 0 8 -13 8 -30z m38 5 c0 -14 -4 -25 -9 -25 -10 0 -12 34 -2 43
10 10 11 9 11 -18z m74 -2 c-3 -16 -7 -22 -10 -15 -4 13 4 42 11 42 2 0 2 -12
-1 -27z m570 -38 c27 -54 29 -71 10 -88 -33 -30 -103 -43 -86 -16 3 5 0 9 -5
9 -6 0 -11 -5 -11 -11 0 -6 -17 -9 -42 -7 l-43 3 3 46 c3 40 1 47 -18 52 -17
4 -20 10 -14 34 4 15 8 29 9 31 1 1 28 -7 59 -18 l57 -19 27 24 c18 17 28 21
31 13 1 -7 12 -31 23 -53z m155 48 c0 -17 -14 -33 -29 -33 -5 0 -8 5 -8 10 0
6 5 9 12 8 7 -2 13 3 14 10 4 28 11 31 11 5z m-755 -25 c-9 -9 -12 -7 -12 12
0 19 3 21 12 12 9 -9 9 -15 0 -24z m75 0 c-3 -7 -5 -2 -5 12 0 14 2 19 5 13 2
-7 2 -19 0 -25z m279 -8 c-3 -28 5 -53 18 -51 19 3 26 0 26 -10 0 -5 -4 -7
-10 -4 -5 3 -10 2 -10 -4 0 -5 6 -12 13 -14 8 -4 8 -8 2 -14 -14 -12 -17 -33
-4 -33 9 0 9 -4 0 -14 -6 -7 -12 -25 -13 -40 -2 -25 -6 -28 -36 -30 -7 -1 -23
-31 -36 -67 -43 -124 -123 -248 -193 -302 -16 -12 -32 -27 -36 -34 -7 -11 -37
-19 -37 -9 0 2 30 35 68 74 77 81 121 149 163 252 16 40 29 74 29 76 0 2 -45
4 -99 4 -55 0 -111 4 -125 9 -17 7 -26 7 -30 -2 -2 -7 -5 -4 -5 6 -1 17 -31
25 -31 8 0 -16 -32 -22 -48 -9 -12 10 -14 10 -8 1 6 -10 -39 -13 -208 -13
-119 0 -219 0 -223 0 -5 0 -8 11 -8 25 -1 14 3 25 9 25 5 0 6 3 3 6 -3 4 -2
15 4 25 7 15 6 19 -6 19 -13 0 -14 4 -4 23 11 19 10 20 -3 9 -13 -10 -15 -9
-11 12 7 33 32 36 237 35 94 -1 159 -4 144 -6 -22 -4 -28 -12 -38 -54 -7 -28
-11 -51 -9 -53 79 -59 81 -60 102 -47 11 7 41 15 66 18 25 3 50 8 55 13 5 5
-1 7 -15 4 -14 -3 -20 -2 -14 3 6 4 11 17 13 28 2 16 -4 13 -28 -14 -16 -19
-32 -33 -34 -30 -3 2 9 20 25 39 18 20 27 40 24 49 -12 30 -10 34 15 37 14 1
40 5 59 8 33 5 33 5 27 -24 -19 -91 -20 -83 25 -112 41 -27 44 -27 68 -11 60
39 61 42 41 101 l-19 53 22 -1 c51 -5 57 -1 63 40 7 45 25 45 20 0z m-173 -47
c-7 -2 -19 -2 -25 0 -7 3 -2 5 12 5 14 0 19 -2 13 -5z m-188 -11 c-2 -2 6 -13
18 -22 12 -10 19 -21 16 -25 -4 -3 -19 6 -33 20 -30 30 -31 32 -11 32 8 0 13
-2 10 -5z m785 -16 c0 -2 -9 -6 -20 -9 -11 -3 -18 -1 -14 4 5 9 34 13 34 5z
m-605 -26 c3 -5 1 -10 -4 -10 -6 0 -11 5 -11 10 0 6 2 10 4 10 3 0 8 -4 11
-10z m602 -12 c2 -18 0 -20 -7 -8 -12 18 -13 30 -2 30 4 0 9 -10 9 -22z m-867
-38 c0 -5 -7 -7 -15 -4 -8 4 -15 8 -15 10 0 2 7 4 15 4 8 0 15 -4 15 -10z
m280 0 c0 -5 -7 -7 -15 -4 -8 4 -15 8 -15 10 0 2 7 4 15 4 8 0 15 -4 15 -10z
m520 -33 c0 -4 5 -5 10 -2 6 3 10 -2 10 -12 1 -14 4 -13 15 7 l14 25 -1 -31
c-1 -31 -2 -32 -30 -22 -35 12 -35 12 -41 -30 -5 -30 -3 -33 14 -29 11 3 23
-1 29 -11 5 -10 10 -12 10 -4 0 6 5 12 11 12 8 0 9 -4 0 -13 -6 -8 -8 -17 -4
-20 3 -4 1 -7 -5 -7 -7 0 -12 5 -12 12 0 6 -3 8 -7 5 -3 -4 -12 -2 -20 5 -17
14 -28 3 -37 -35 -4 -18 -3 -26 3 -23 5 4 12 2 16 -4 4 -6 11 -8 16 -5 5 4 9
0 9 -7 0 -9 3 -9 10 2 13 21 12 3 -1 -22 -11 -21 -12 -21 -25 -3 -23 32 -51
27 -45 -7 0 -5 -3 -8 -8 -8 -5 0 -11 -7 -15 -15 -3 -8 -2 -14 2 -13 4 1 15 -2
25 -7 12 -5 24 -1 37 10 11 10 20 16 20 13 0 -20 -68 -135 -120 -203 -38 -50
-142 -144 -203 -183 -63 -42 -264 -122 -251 -101 3 6 17 15 31 20 19 7 24 15
20 29 -3 12 -1 18 5 14 6 -4 8 -1 6 7 -3 8 -11 13 -17 12 -6 -2 -11 6 -11 17
0 11 3 19 8 18 4 -1 44 17 90 41 154 81 312 260 357 403 10 31 21 55 25 53 4
-2 5 7 2 20 -2 14 0 25 4 25 8 0 13 26 14 78 0 19 2 21 20 10 11 -7 20 -16 20
-21z m-1160 -67 c0 -5 -5 -10 -11 -10 -5 0 -7 5 -4 10 3 6 8 10 11 10 2 0 4
-4 4 -10z m24 -67 c51 -122 186 -277 295 -336 48 -27 52 -27 81 -12 16 8 30
13 30 9 0 -4 6 -1 14 5 11 9 16 9 22 0 4 -7 3 -9 -3 -6 -6 4 -17 0 -24 -9 -7
-8 -25 -22 -41 -30 -26 -13 -32 -13 -83 12 -129 64 -246 195 -300 338 -28 74
-28 76 -17 76 4 0 16 -21 26 -47z m473 -65 c-2 -13 -4 -5 -4 17 -1 22 1 32 4
23 2 -10 2 -28 0 -40z m-257 10 c-1 -28 -2 -30 -11 -15 -6 10 -8 25 -5 33 9
24 16 16 16 -18z m107 -15 c-3 -10 -5 -4 -5 12 0 17 2 24 5 18 2 -7 2 -21 0
-30z m30 0 c-3 -10 -5 -4 -5 12 0 17 2 24 5 18 2 -7 2 -21 0 -30z m-710 -28
c0 -8 -4 -12 -9 -9 -5 3 -6 10 -3 15 9 13 12 11 12 -6z m-22 -15 c3 -6 -1 -7
-9 -4 -18 7 -21 14 -7 14 6 0 13 -4 16 -10z m172 -160 c88 -98 235 -186 372
-221 84 -23 331 -35 331 -16 0 5 6 4 14 -2 10 -8 16 -9 19 -1 3 6 4 5 3 -2 -2
-7 -8 -12 -14 -11 -6 2 -23 -2 -37 -7 -21 -8 -25 -15 -23 -45 2 -19 6 -35 11
-35 4 0 7 5 7 11 0 6 11 9 24 7 13 -1 31 3 40 11 14 12 16 12 10 -3 -6 -15
-18 -20 -38 -17 -5 1 -16 -1 -25 -5 -53 -24 -256 -21 -356 5 -151 40 -304 128
-395 228 -68 75 -79 90 -69 100 4 4 4 15 -2 23 -9 13 -10 12 -5 -2 3 -10 2
-18 -3 -18 -5 0 -11 13 -13 28 -3 25 -1 28 17 24 22 -4 53 23 41 35 -4 4 -16
1 -28 -6 -17 -11 -23 -10 -39 8 -21 22 -20 25 5 15 9 -3 13 -10 10 -15 -3 -5
-1 -9 4 -9 5 0 13 10 17 23 9 26 9 26 -1 52 -4 11 12 -8 35 -42 23 -34 62 -85
88 -113z m520 108 c-2 -13 -4 -3 -4 22 0 25 2 35 4 23 2 -13 2 -33 0 -45z
m-100 0 c-2 -13 -4 -5 -4 17 -1 22 1 32 4 23 2 -10 2 -28 0 -40z m160 0 c-2
-13 -4 -5 -4 17 -1 22 1 32 4 23 2 -10 2 -28 0 -40z m-230 5 c-3 -10 -5 -4 -5
12 0 17 2 24 5 18 2 -7 2 -21 0 -30z m140 -15 c-3 -7 -5 -2 -5 12 0 14 2 19 5
13 2 -7 2 -19 0 -25z m60 0 c-3 -7 -5 -2 -5 12 0 14 2 19 5 13 2 -7 2 -19 0
-25z m60 0 c-3 -7 -5 -2 -5 12 0 14 2 19 5 13 2 -7 2 -19 0 -25z m50 0 c-3 -7
-5 -2 -5 12 0 14 2 19 5 13 2 -7 2 -19 0 -25z m50 0 c-3 -7 -5 -2 -5 12 0 14
2 19 5 13 2 -7 2 -19 0 -25z m-879 -39 c-3 -8 -7 -3 -11 10 -4 17 -3 21 5 13
5 -5 8 -16 6 -23z m497 -49 c10 -11 16 -20 13 -20 -3 0 -13 9 -23 20 -10 11
-16 20 -13 20 3 0 13 -9 23 -20z m460 -239 c-3 -6 -11 -11 -17 -11 -6 0 -6 6
2 15 14 17 26 13 15 -4z"/>
<path d="M904 1725 c-10 -25 4 -45 31 -45 14 0 25 4 25 9 0 5 3 16 6 25 4 11
1 16 -10 16 -9 0 -16 -8 -17 -17 0 -14 -2 -13 -9 5 -11 26 -18 28 -26 7z"/>
<path d="M800 1706 c0 -14 5 -28 10 -31 6 -3 10 -2 10 3 0 5 12 7 27 4 22 -4
25 -2 20 12 -4 10 -7 22 -7 27 0 5 -13 9 -30 9 -25 0 -30 -4 -30 -24z"/>
<path d="M992 1715 c-7 -9 -8 -15 -2 -15 5 0 9 -3 9 -7 -3 -18 1 -36 7 -30 3
3 16 2 29 -3 20 -8 23 -6 21 14 0 14 -6 22 -13 19 -7 -3 -13 0 -13 6 0 6 5 11
10 11 6 0 10 5 10 10 0 15 -43 11 -58 -5z"/>
<path d="M740 1695 c0 -14 5 -25 10 -25 6 0 10 11 10 25 0 14 -4 25 -10 25 -5
0 -10 -11 -10 -25z"/>
<path d="M660 1698 c-21 -9 -22 -12 -7 -15 9 -3 17 -11 17 -19 0 -8 5 -14 10
-14 6 0 10 6 10 14 0 8 3 21 6 30 7 18 -1 19 -36 4z"/>
<path d="M581 1671 c-16 -11 -6 -51 14 -51 19 0 27 17 20 40 -7 22 -13 24 -34
11z"/>
<path d="M444 1593 c-5 -19 -2 -30 11 -40 23 -16 27 -16 49 0 13 9 16 20 11
40 -6 21 -13 27 -36 27 -23 0 -30 -6 -35 -27z"/>
<path d="M348 1526 c-16 -11 -16 -15 -2 -34 13 -18 18 -20 34 -9 22 13 27 38
8 35 -7 -2 -12 3 -10 10 3 15 -8 15 -30 -2z"/>
<path d="M282 1468 c-17 -17 -15 -41 3 -35 8 4 17 2 20 -4 4 -5 11 -7 16 -3 6
4 6 11 -1 19 -7 8 -9 19 -5 25 9 14 -18 13 -33 -2z"/>
<path d="M225 1389 c-9 -14 3 -59 16 -59 5 0 13 8 16 18 4 9 14 22 22 29 9 7
12 13 6 13 -5 1 -20 3 -32 6 -12 2 -25 -1 -28 -7z"/>
<path d="M1181 1669 c5 -11 7 -24 4 -29 -3 -5 0 -12 6 -16 6 -4 16 1 21 10 5
9 13 14 19 11 5 -4 9 1 9 9 0 13 -23 26 -57 32 -10 2 -10 -3 -2 -17z"/>
<path d="M1261 1623 c-6 -14 -10 -27 -9 -28 2 -1 13 -8 26 -14 19 -10 22 -9
22 9 0 11 5 20 11 20 14 0 2 18 -20 30 -15 7 -20 4 -30 -17z"/>
<path d="M1366 1544 c-12 -47 29 -71 65 -38 26 23 6 64 -32 64 -21 0 -28 -6
-33 -26z"/>
<path d="M1477 1462 c-16 -18 -16 -20 3 -37 19 -18 22 -18 38 -2 13 13 14 21
6 34 -15 25 -28 26 -47 5z"/>
<path d="M1537 1396 c-15 -12 -16 -18 -7 -35 13 -24 19 -25 43 -7 16 12 16 17
5 35 -15 25 -17 25 -41 7z"/>
<path d="M1605 1330 c-4 -6 -11 -8 -16 -4 -5 3 -8 0 -7 -8 2 -7 -4 -12 -12
-10 -11 3 -10 -1 4 -16 16 -19 67 -25 66 -9 0 4 0 11 0 17 0 5 -6 7 -14 4 -11
-4 -13 0 -9 15 6 22 -1 28 -12 11z"/>
<path d="M1679 1183 c-1 -4 -1 -12 0 -17 1 -5 -5 -6 -13 -3 -20 8 -30 -26 -16
-53 6 -11 18 -20 28 -19 10 0 12 3 5 6 -19 7 -16 30 5 35 10 3 19 12 19 20 0
15 -26 44 -28 31z"/>
<path d="M360 971 c-6 -12 -7 -21 -1 -21 10 0 24 30 17 37 -2 3 -9 -5 -16 -16z"/>
<path d="M360 905 c0 -14 2 -25 4 -25 2 0 6 11 8 25 3 14 1 25 -3 25 -5 0 -9
-11 -9 -25z"/>
<path d="M1492 916 c1 -14 5 -23 9 -20 7 4 0 44 -7 44 -2 0 -3 -11 -2 -24z"/>
<path d="M543 920 c-3 -11 -9 -17 -14 -15 -4 3 -6 -4 -4 -16 2 -12 0 -29 -5
-39 -8 -14 0 -22 41 -45 l51 -27 36 30 c39 32 43 51 19 105 -11 25 -17 27 -65
27 -45 0 -55 -3 -59 -20z m35 -75 c-3 -3 -9 2 -12 12 -6 14 -5 15 5 6 7 -7 10
-15 7 -18z"/>
<path d="M1021 913 c7 -12 15 -20 18 -17 3 2 -3 12 -13 22 -17 16 -18 16 -5
-5z"/>
<path d="M500 779 c0 -5 5 -7 10 -4 6 3 10 8 10 11 0 2 -4 4 -10 4 -5 0 -10
-5 -10 -11z"/>
<path d="M1582 515 c-15 -33 -15 -34 6 -33 9 0 25 -3 35 -7 17 -7 17 -6 0 29
-21 43 -26 44 -41 11z"/>
<path d="M1562 460 c-30 -13 -38 -36 -17 -56 12 -12 19 -14 28 -5 6 6 7 11 2
11 -5 0 0 7 11 15 12 9 14 14 5 15 -7 0 -11 6 -7 15 3 8 4 15 3 14 -1 0 -12
-4 -25 -9z"/>
<path d="M1490 385 c0 -8 5 -15 10 -15 6 0 10 -5 10 -11 0 -8 -5 -7 -15 1 -22
18 -32 3 -13 -17 20 -19 48 -11 48 15 0 18 -18 42 -32 42 -4 0 -8 -7 -8 -15z"/>
<path d="M1416 309 c-19 -18 -19 -20 -3 -37 12 -11 20 -13 25 -6 4 6 15 14 26
17 18 7 18 8 1 27 -22 24 -25 24 -49 -1z"/>
<path d="M1305 245 c-3 -8 -7 -21 -9 -29 -6 -20 40 -39 65 -26 20 11 23 27 13
54 -8 21 -63 21 -69 1z"/>
<path d="M1205 188 c-11 -6 -21 -12 -23 -13 -1 -1 2 -14 9 -28 10 -22 14 -24
35 -15 26 12 30 23 14 33 -6 4 -8 10 -5 15 9 14 -9 19 -30 8z"/>
<path d="M249 423 c-11 -13 -11 -17 -1 -20 6 -3 10 -8 7 -13 -3 -4 2 -10 10
-14 8 -3 15 -1 15 4 0 6 7 10 15 10 18 0 20 21 3 38 -17 17 -33 15 -49 -5z"/>
<path d="M312 357 l-21 -23 21 -13 c16 -10 23 -10 26 -2 2 6 10 11 18 11 19 0
18 14 -4 33 -17 16 -20 16 -40 -6z"/>
<path d="M390 268 c-6 -18 -4 -27 12 -40 26 -23 31 -22 52 1 14 15 15 24 6 40
-15 29 -58 28 -70 -1z"/>
<path d="M514 205 c-4 -8 -1 -22 6 -30 14 -17 40 -20 40 -5 0 6 -7 10 -15 10
-8 0 -15 5 -15 11 0 6 9 8 22 3 20 -6 21 -5 9 10 -17 20 -40 21 -47 1z"/>
<path d="M592 165 c-12 -25 -11 -27 8 -22 13 3 20 0 20 -9 0 -19 16 -18 24 2
9 25 7 36 -6 31 -7 -2 -18 3 -23 10 -9 12 -13 10 -23 -12z"/>
<path d="M688 138 c-9 -21 -7 -33 4 -30 6 1 17 -3 25 -10 12 -10 14 -7 11 17
-3 31 -31 47 -40 23z"/>
<path d="M770 110 c0 -25 4 -30 25 -30 14 0 25 5 25 10 0 6 -7 10 -15 10 -8 0
-15 9 -15 20 0 11 -4 20 -10 20 -5 0 -10 -13 -10 -30z"/>
<path d="M953 132 c-18 -3 -23 -10 -23 -32 0 -30 16 -42 49 -33 23 6 28 19 9
26 -10 4 -10 7 0 15 18 13 -6 29 -35 24z"/>
<path d="M850 100 c0 -25 4 -30 25 -30 14 0 25 5 25 10 0 6 -7 10 -15 10 -8 0
-15 9 -15 20 0 11 -4 20 -10 20 -5 0 -10 -13 -10 -30z"/>
</g>
</svg>
